<svg width="9" height="9" fill="none" xmlns="http://www.w3.org/2000/svg"><g clip-path="url(#clip0_9_106)"><path fill="#fff" d="M0 0h9v9H0z"/><path d="M4.5 0A4.505 4.505 0 000 4.5C0 6.981 2.019 9 4.5 9S9 6.981 9 4.5 6.981 0 4.5 0zm0 7.875A3.379 3.379 0 011.125 4.5 3.379 3.379 0 014.5 1.125 3.379 3.379 0 017.875 4.5 3.379 3.379 0 014.5 7.875zm-.844-3.776v.802c0 .458.353.818.804.818h.154c.2 0 .394-.073.543-.207a.561.561 0 11.748.84 1.938 1.938 0 01-1.291.492H4.46a1.939 1.939 0 01-1.929-1.943V4.1a1.94 1.94 0 011.93-1.943h.153c.496 0 .969.187 1.33.527a.562.562 0 11-.77.82.816.816 0 00-.56-.222H4.46a.802.802 0 00-.804.817z" fill="#000"/></g><defs><clipPath id="clip0_9_106"><path fill="#fff" d="M0 0h9v9H0z"/></clipPath></defs></svg>