<svg width="80" height="37" viewBox="0 0 80 37" fill="none" xmlns="http://www.w3.org/2000/svg">
<rect width="80" height="30" rx="15" fill="#B6521A"/>
<path d="M27.2482 19V10.2727H30.1971C30.8817 10.2727 31.4414 10.3963 31.8761 10.6435C32.3136 10.8878 32.6374 11.2188 32.8477 11.6364C33.0579 12.054 33.163 12.5199 33.163 13.0341C33.163 13.5483 33.0579 14.0156 32.8477 14.4361C32.6403 14.8565 32.3192 15.1918 31.8846 15.4418C31.4499 15.6889 30.8931 15.8125 30.2141 15.8125H28.1005V14.875H30.18C30.6488 14.875 31.0252 14.794 31.3093 14.6321C31.5934 14.4702 31.7994 14.2514 31.9272 13.9759C32.0579 13.6974 32.1232 13.3835 32.1232 13.0341C32.1232 12.6847 32.0579 12.3722 31.9272 12.0966C31.7994 11.821 31.592 11.6051 31.305 11.4489C31.0181 11.2898 30.6374 11.2102 30.163 11.2102H28.305V19H27.2482ZM34.729 19V12.4545H35.7006V13.4432H35.7688C35.8881 13.1193 36.104 12.8565 36.4165 12.6548C36.729 12.4531 37.0813 12.3523 37.4734 12.3523C37.5472 12.3523 37.6396 12.3537 37.7504 12.3565C37.8612 12.3594 37.945 12.3636 38.0018 12.3693V13.392C37.9677 13.3835 37.8896 13.3707 37.7674 13.3537C37.6481 13.3338 37.5217 13.3239 37.3881 13.3239C37.07 13.3239 36.7859 13.3906 36.5359 13.5241C36.2887 13.6548 36.0927 13.8366 35.9478 14.0696C35.8058 14.2997 35.7347 14.5625 35.7347 14.858V19H34.729ZM39.1939 19V12.4545H40.1996V19H39.1939ZM39.7053 11.3636C39.5092 11.3636 39.3402 11.2969 39.1982 11.1634C39.0589 11.0298 38.9893 10.8693 38.9893 10.6818C38.9893 10.4943 39.0589 10.3338 39.1982 10.2003C39.3402 10.0668 39.5092 10 39.7053 10C39.9013 10 40.0689 10.0668 40.2081 10.2003C40.3501 10.3338 40.4212 10.4943 40.4212 10.6818C40.4212 10.8693 40.3501 11.0298 40.2081 11.1634C40.0689 11.2969 39.9013 11.3636 39.7053 11.3636ZM44.7006 19.1364C44.087 19.1364 43.5586 18.9915 43.1154 18.7017C42.6722 18.4119 42.3313 18.0128 42.0927 17.5043C41.854 16.9957 41.7347 16.4148 41.7347 15.7614C41.7347 15.0966 41.8569 14.5099 42.1012 14.0014C42.3484 13.4901 42.6921 13.0909 43.1325 12.804C43.5756 12.5142 44.0927 12.3693 44.6836 12.3693C45.1438 12.3693 45.5586 12.4545 45.9279 12.625C46.2972 12.7955 46.5998 13.0341 46.8356 13.3409C47.0714 13.6477 47.2177 14.0057 47.2745 14.4148H46.2688C46.1921 14.1165 46.0217 13.8523 45.7575 13.6222C45.4961 13.3892 45.1438 13.2727 44.7006 13.2727C44.3086 13.2727 43.9648 13.375 43.6694 13.5795C43.3768 13.7812 43.1481 14.0668 42.9833 14.4361C42.8214 14.8026 42.7404 15.233 42.7404 15.7273C42.7404 16.233 42.82 16.6733 42.979 17.0483C43.141 17.4233 43.3683 17.7145 43.6609 17.9219C43.9563 18.1293 44.3029 18.233 44.7006 18.233C44.962 18.233 45.1992 18.1875 45.4123 18.0966C45.6254 18.0057 45.8058 17.875 45.9535 17.7045C46.1012 17.5341 46.2063 17.3295 46.2688 17.0909H47.2745C47.2177 17.4773 47.0771 17.8253 46.8526 18.1349C46.631 18.4418 46.337 18.6861 45.9705 18.8679C45.6069 19.0469 45.1836 19.1364 44.7006 19.1364ZM51.489 19.1364C50.8583 19.1364 50.3143 18.9972 49.8569 18.7188C49.4023 18.4375 49.0515 18.0455 48.8043 17.5426C48.56 17.0369 48.4379 16.4489 48.4379 15.7784C48.4379 15.108 48.56 14.517 48.8043 14.0057C49.0515 13.4915 49.3952 13.0909 49.8356 12.804C50.2788 12.5142 50.7958 12.3693 51.3867 12.3693C51.7276 12.3693 52.0643 12.4261 52.3967 12.5398C52.729 12.6534 53.0316 12.8381 53.3043 13.0938C53.5771 13.3466 53.7944 13.6818 53.9563 14.0994C54.1183 14.517 54.1992 15.0312 54.1992 15.642V16.0682H49.1538V15.1989H53.1765C53.1765 14.8295 53.1026 14.5 52.9549 14.2102C52.81 13.9205 52.6026 13.6918 52.3327 13.5241C52.0657 13.3565 51.7504 13.2727 51.3867 13.2727C50.9862 13.2727 50.6396 13.3722 50.3469 13.571C50.0572 13.767 49.8342 14.0227 49.6779 14.3381C49.5217 14.6534 49.4435 14.9915 49.4435 15.3523V15.9318C49.4435 16.4261 49.5288 16.8452 49.6992 17.1889C49.8725 17.5298 50.1126 17.7898 50.4194 17.9688C50.7262 18.1449 51.0827 18.233 51.489 18.233C51.7532 18.233 51.9918 18.196 52.2049 18.1222C52.4208 18.0455 52.6069 17.9318 52.7631 17.7812C52.9194 17.6278 53.0401 17.4375 53.1254 17.2102L54.0969 17.483C53.9947 17.8125 53.8228 18.1023 53.5813 18.3523C53.3398 18.5994 53.0415 18.7926 52.6864 18.9318C52.3313 19.0682 51.9322 19.1364 51.489 19.1364Z" fill="white"/>
</svg>
