<svg width="32" height="32" viewBox="0 0 32 32" fill="none" xmlns="http://www.w3.org/2000/svg">
<g clip-path="url(#clip0_12_227)">
<rect width="32" height="32" fill="white"/>
<path d="M16 0C7.17733 0 0 7.17733 0 16C0 24.8227 7.17733 32 16 32C24.8227 32 32 24.8227 32 16C32 7.17733 24.8227 0 16 0ZM16 28C9.38267 28 4 22.616 4 16C4 9.384 9.38267 4 16 4C22.6173 4 28 9.384 28 16C28 22.616 22.6173 28 16 28ZM13 14.576V17.4253C13 19.056 14.2547 20.3347 15.8587 20.3347H16.404C17.1173 20.3347 17.8053 20.0733 18.3373 19.6C19.1613 18.8627 20.4267 18.9387 21.16 19.764C21.8947 20.5893 21.8213 21.8533 20.996 22.588C19.7307 23.716 18.1 24.336 16.404 24.336H15.8587C12.0773 24.336 9 21.236 9 17.4267V14.5773C9 10.768 12.0773 7.668 15.8587 7.668H16.404C18.1693 7.668 19.8507 8.33467 21.1373 9.544C21.9427 10.3 21.9813 11.5667 21.224 12.3707C20.468 13.176 19.2013 13.2133 18.3973 12.4573C17.856 11.948 17.1467 11.668 16.404 11.668H15.8587C14.256 11.668 13 12.944 13 14.576Z" fill="black"/>
</g>
<defs>
<clipPath id="clip0_12_227">
<rect width="32" height="32" fill="white"/>
</clipPath>
</defs>
</svg>
