<svg width="9" height="9" viewBox="0 0 9 9" fill="none" xmlns="http://www.w3.org/2000/svg">
<g clip-path="url(#clip0_9_106)">
<rect width="9" height="9" fill="white"/>
<path d="M4.5 0C2.01863 0 0 2.01863 0 4.5C0 6.98138 2.01863 9 4.5 9C6.98138 9 9 6.98138 9 4.5C9 2.01863 6.98138 0 4.5 0ZM4.5 7.875C2.63888 7.875 1.125 6.36075 1.125 4.5C1.125 2.63925 2.63888 1.125 4.5 1.125C6.36112 1.125 7.875 2.63925 7.875 4.5C7.875 6.36075 6.36112 7.875 4.5 7.875ZM3.65625 4.0995V4.90088C3.65625 5.3595 4.00913 5.71913 4.46025 5.71913H4.61363C4.81425 5.71913 5.00775 5.64563 5.15738 5.5125C5.38912 5.30512 5.745 5.3265 5.95125 5.55863C6.15788 5.79075 6.13725 6.14625 5.90512 6.35287C5.54925 6.67013 5.09063 6.8445 4.61363 6.8445H4.46025C3.39675 6.8445 2.53125 5.97262 2.53125 4.90125V4.09987C2.53125 3.0285 3.39675 2.15663 4.46025 2.15663H4.61363C5.11013 2.15663 5.583 2.34413 5.94487 2.68425C6.17137 2.89687 6.18225 3.25312 5.96925 3.47925C5.75663 3.70575 5.40037 3.71625 5.17425 3.50363C5.022 3.36038 4.8225 3.28163 4.61363 3.28163H4.46025C4.0095 3.28163 3.65625 3.6405 3.65625 4.0995Z" fill="black"/>
</g>
<defs>
<clipPath id="clip0_9_106">
<rect width="9" height="9" fill="white"/>
</clipPath>
</defs>
</svg>
