<svg width="41" height="42" viewBox="0 0 41 42" fill="none" xmlns="http://www.w3.org/2000/svg">
<path d="M39.1666 30.43V36.18C39.1688 36.7138 39.0594 37.2422 38.8456 37.7313C38.6317 38.2204 38.3181 38.6594 37.9248 39.0203C37.5314 39.3811 37.0671 39.6559 36.5614 39.8269C36.0557 39.9979 35.5199 40.0614 34.9883 40.0133C29.0904 39.3725 23.425 37.3571 18.4475 34.1292C13.8165 31.1865 9.89018 27.2602 6.94745 22.6292C3.70824 17.629 1.69242 11.9361 1.06329 6.01168C1.01539 5.48166 1.07838 4.94747 1.24825 4.44313C1.41811 3.93878 1.69113 3.47533 2.04992 3.08229C2.40871 2.68924 2.84541 2.37521 3.33222 2.16018C3.81903 1.94515 4.34527 1.83385 4.87745 1.83335H10.6275C11.5576 1.82419 12.4594 2.15358 13.1647 2.76012C13.8699 3.36665 14.3306 4.20895 14.4608 5.13001C14.7035 6.97014 15.1536 8.77691 15.8025 10.5158C16.0603 11.2019 16.1161 11.9474 15.9633 12.6642C15.8104 13.381 15.4553 14.0389 14.94 14.56L12.5058 16.9942C15.2343 21.7926 19.2073 25.7657 24.0058 28.4942L26.44 26.06C26.9611 25.5447 27.619 25.1896 28.3358 25.0367C29.0525 24.8838 29.7981 24.9396 30.4841 25.1975C32.2231 25.8464 34.0298 26.2965 35.87 26.5392C36.801 26.6705 37.6513 27.1395 38.2591 27.8569C38.867 28.5743 39.1899 29.49 39.1666 30.43Z" stroke="black" stroke-width="2" stroke-linecap="round" stroke-linejoin="round"/>
</svg>
